<?xml version="1.0" encoding="UTF-8" standalone="no"?><!DOCTYPE svg PUBLIC "-//W3C//DTD SVG 1.1//EN" "http://www.w3.org/Graphics/SVG/1.1/DTD/svg11.dtd"><svg width="100%" height="100%" viewBox="0 0 1044 487" version="1.1" xmlns="http://www.w3.org/2000/svg" xmlns:xlink="http://www.w3.org/1999/xlink" xml:space="preserve" xmlns:serif="http://www.serif.com/" style="fill-rule:evenodd;clip-rule:evenodd;stroke-linecap:round;stroke-linejoin:round;stroke-miterlimit:2;"><path id="SPLINE" d="M572.376,328.472c-69.107,16.908 -147.94,37.206 -214.938,61.126c-43.134,15.414 -100.764,32.563 -139.825,57.121c-30.655,19.266 -100.605,56.419 -131.955,27.568c-18.9,-17.386 -23.715,-28.6 1.972,-45.293c15.222,-9.899 35.969,-5.855 55.139,-11.817c246.809,-76.791 498.549,-149.419 754.291,-183.156c27.954,-3.694 118.076,-35.227 139.827,-9.853c2.562,2.993 5.7,7.782 3.934,11.817c-12.722,29.091 -49.704,63.187 -78.771,72.871c-41.107,13.701 -15.051,-38.435 -45.302,-43.329c-108.028,-17.474 -238.101,35.867 -344.357,62.943c-0.002,-0 -0.01,0.002 -0.015,0.002Z" style="fill:#fff;stroke:#000;stroke-width:3.94px;"/><path id="SPLINE1" serif:id="SPLINE" d="M1027.89,81.124c-8.679,39.456 -53.29,73.929 -88.784,94.333c-9.128,5.255 -25.005,9.359 -32.186,1.114c-23.65,-27.158 -12.786,-64.981 -0,-97.662c7.235,-18.496 14.003,-37.798 26.636,-54.385c6.016,-7.9 16.865,-11.78 26.636,-15.536c5.183,-1.99 11.755,-2.609 16.649,0c12.542,6.687 24.422,15.043 34.4,25.523c12.74,13.378 20.496,29.14 16.649,46.613Zm-35.51,5.549c2.841,-11.924 -1.498,-22.764 -11.101,-29.962c-5.324,-3.999 -14.398,-4.413 -17.761,-0c-15.941,20.926 -39.6,51.094 -28.852,75.461c8.07,18.309 54.717,-32.911 57.714,-45.499Z" style="fill:#fff;stroke:#000;stroke-width:3.94px;"/><path id="SPLINE2" serif:id="SPLINE" d="M883.613,66.698c-5.192,29.424 -18.219,58.142 -38.84,79.909c-19.463,20.54 -37.763,43.923 -63.269,54.386c-20.531,8.417 -35.137,-6.681 -41.06,-25.536c-6.987,-22.233 10.651,-43.499 21.085,-64.371c4.008,-7.997 50.681,-59.881 42.183,-75.462c-7.137,-13.072 -31.183,-2.727 -46.621,-4.439c-4.932,-0.547 -11.1,-2.661 -11.1,-6.661c-0,-30.152 72.567,-23.204 94.337,-17.76c18.404,4.6 36.568,12.695 41.069,32.186c2.241,9.737 3.773,18.934 2.216,27.748Zm-38.84,12.211c0.474,-3.102 -3.083,-9.565 -6.661,-7.774c-11.233,5.614 -41.125,45.015 -26.636,51.05c14.346,5.979 31.324,-30.436 33.297,-43.276Z" style="fill:#fff;stroke:#000;stroke-width:3.94px;"/><path id="SPLINE3" serif:id="SPLINE" d="M737.117,114.421c-1.759,12.282 -9.208,23.159 -15.539,33.299c-16.003,25.594 -62.416,71.032 -93.23,45.5c-8.797,-7.29 -14.606,-19.079 -15.538,-29.964c-3.577,-42.022 42.486,-66.148 73.258,-87.681c2.564,-1.804 6.767,-4.67 8.874,-8.877c0.699,-1.408 -0.869,-4.168 -3.334,-4.437c-18.748,-2.089 -56.124,-10.399 -66.587,6.65c-20.926,34.116 -28.959,74.738 -39.952,113.209c-4.617,16.147 0.199,34.615 -6.659,49.947c-12.446,27.811 -43.169,11.834 -49.947,-9.988c-3.631,-11.708 11.098,-26.162 4.438,-36.625c-5.353,-8.427 -38.022,41.852 -45.499,48.827c-9.254,8.633 -18.355,18.066 -29.964,21.088c-15.035,3.926 -23.518,2.312 -36.633,-6.653c-8.435,-5.781 -15.043,-14.667 -18.863,-24.424c-6.277,-16.038 -1.972,-36.972 -13.321,-49.935c-7.345,-8.402 -22.479,-7.676 -32.188,-4.448c-18.981,6.328 -24.189,38.202 -26.628,57.72c-3.175,25.328 0.34,45.176 -25.534,38.838c-29.89,-7.317 31.676,-82.914 12.211,-104.321c-4.472,-4.934 -19.247,-2.835 -22.198,4.437c-13.978,34.481 -12.848,72.233 -15.536,109.879c-0.674,9.452 0.008,22.235 -7.775,24.416c-24.574,6.874 -35.386,-0.057 -44.387,-23.312c-4.806,-12.417 4.984,-20.172 7.773,-33.288c5.084,-23.994 16.594,-48.988 8.876,-72.145c-5.46,-16.381 -76,1.54 -87.684,16.649c-34.478,44.565 -52.716,96.001 -71.025,150.942c-4.472,13.395 -27.37,6.149 -35.52,-4.446c-3.452,-4.484 -4.069,-12.471 -2.214,-18.865c10.435,-36.077 36.167,-67.779 54.377,-100.995c1.201,-2.178 1.085,-6.32 -1.104,-6.661c-14.265,-2.188 -32.418,4.579 -37.734,17.759c-18.855,46.675 -98.855,-24.117 -37.737,-47.722c37.17,-14.363 79.192,-14.212 116.532,-28.859c20.065,-7.863 34.017,-38.087 48.836,-54.386c18.477,-20.325 36.677,-41.07 57.711,-59.925c11.242,-10.077 24.333,-20.702 38.847,-28.86c3.864,-2.178 9.987,-3.327 14.425,0c5.954,4.465 8.608,11.109 11.101,17.76c4.356,11.618 7.619,24.028 8.874,36.623c2.099,20.98 -5.8,31.57 -13.312,49.939c-2.556,6.25 -5.175,15.088 -1.113,18.872c14.193,13.244 24.718,-1.72 31.074,-14.425c8.321,-16.641 5.883,-39.17 18.864,-54.386c27.129,-31.772 97.274,-48.825 128.745,-14.425c17.428,19.044 16.361,47.077 -3.328,68.811c-13.681,15.088 -53.247,23.112 -46.611,46.613c6.098,21.625 2.646,50.321 25.526,46.611c22.789,-3.695 32.446,-32.645 52.16,-45.501c7.44,-4.849 21.6,5.729 27.749,-2.224c15.249,-19.731 27.183,-53.56 18.863,-77.685c-4.214,-12.238 -55.003,3.391 -34.4,-28.86c5.065,-7.935 33.315,-5.998 43.285,-6.661c6.731,-0.447 12.973,-4.994 19.975,-5.551c35.422,-2.788 71.465,-11.574 107.658,-5.548c13.932,2.321 7.531,16.245 25.523,25.534c18.129,9.349 18.362,32.357 15.539,52.16Zm-283.015,-27.748c0.574,-2.411 0.081,-6.923 -3.324,-7.764c-11.846,-2.957 -24.909,-3.425 -36.625,0c-15.736,4.583 -36.194,8.679 -41.071,23.303c-10.176,30.535 75.901,5.97 81.02,-15.539Zm-188.669,2.224c0.994,-6.679 3.444,-15.78 -2.223,-21.088c-14.479,-13.582 -51.964,45.67 -62.15,57.713c-2.866,3.387 -3.263,11.554 -0,12.2c16.318,3.263 39.305,6.661 51.052,-4.436c10.973,-10.364 10.918,-28.413 13.321,-44.389Zm447.271,25.524c1.444,-4.338 2.734,-11.116 -1.113,-13.323c-6.75,-3.845 -16.084,-2.617 -22.199,0c-10.201,4.377 -18.512,11.288 -25.524,17.763c-7.521,6.937 -14.739,14.244 -17.761,23.308c-2.806,8.417 -4.697,18.229 0,24.414c20.873,27.506 61.099,-35.685 66.597,-52.162Z" style="fill:#fff;stroke:#000;stroke-width:3.94px;"/></svg>