<?xml version="1.0" encoding="UTF-8" standalone="no"?><!DOCTYPE svg PUBLIC "-//W3C//DTD SVG 1.1//EN" "http://www.w3.org/Graphics/SVG/1.1/DTD/svg11.dtd"><svg width="100%" height="100%" viewBox="0 0 1045 489" version="1.1" xmlns="http://www.w3.org/2000/svg" xmlns:xlink="http://www.w3.org/1999/xlink" xml:space="preserve" xmlns:serif="http://www.serif.com/" style="fill-rule:evenodd;clip-rule:evenodd;stroke-linecap:round;stroke-linejoin:round;stroke-miterlimit:2;"><path id="SPLINE" d="M573.186,329.281c-69.107,16.908 -147.94,37.206 -214.939,61.126c-43.134,15.414 -100.764,32.564 -139.825,57.121c-30.655,19.266 -100.605,56.419 -131.954,27.569c-18.901,-17.386 -23.715,-28.6 1.971,-45.293c15.222,-9.9 35.969,-5.855 55.139,-11.818c246.809,-76.79 498.549,-149.419 754.291,-183.156c27.955,-3.694 118.076,-35.226 139.827,-9.853c2.562,2.994 5.701,7.783 3.934,11.817c-12.721,29.092 -49.704,63.188 -78.77,72.871c-41.107,13.701 -15.052,-38.435 -45.303,-43.329c-108.028,-17.474 -238.1,35.868 -344.357,62.943c-0.002,0 -0.01,0.002 -0.014,0.002Z" style="stroke:#fff;stroke-width:5.56px;"/><path id="SPLINE1" serif:id="SPLINE" d="M1028.7,81.933c-8.678,39.456 -53.289,73.929 -88.784,94.334c-9.128,5.255 -25.005,9.359 -32.186,1.113c-23.65,-27.157 -12.786,-64.981 0,-97.661c7.235,-18.496 14.003,-37.799 26.636,-54.386c6.016,-7.899 16.865,-11.78 26.637,-15.536c5.182,-1.99 11.754,-2.609 16.648,0c12.542,6.687 24.423,15.043 34.4,25.523c12.741,13.378 20.497,29.14 16.649,46.613Zm-35.51,5.549c2.841,-11.924 -1.498,-22.763 -11.101,-29.962c-5.324,-3.998 -14.398,-4.412 -17.76,0c-15.942,20.926 -39.6,51.095 -28.852,75.462c8.069,18.308 54.716,-32.912 57.713,-45.5Z" style="stroke:#fff;stroke-width:5.56px;"/><path id="SPLINE2" serif:id="SPLINE" d="M884.422,67.508c-5.192,29.423 -18.219,58.141 -38.839,79.908c-19.463,20.54 -37.764,43.923 -63.27,54.386c-20.53,8.417 -35.137,-6.68 -41.06,-25.535c-6.987,-22.233 10.651,-43.5 21.086,-64.372c4.007,-7.997 50.68,-59.88 42.182,-75.461c-7.137,-13.073 -31.182,-2.728 -46.62,-4.44c-4.933,-0.546 -11.101,-2.661 -11.101,-6.661c-0,-30.151 72.567,-23.203 94.337,-17.759c18.405,4.6 36.568,12.694 41.069,32.186c2.241,9.737 3.773,18.933 2.216,27.748Zm-38.839,12.211c0.474,-3.103 -3.084,-9.566 -6.662,-7.775c-11.233,5.614 -41.124,45.016 -26.636,51.05c14.346,5.98 31.324,-30.436 33.298,-43.275Z" style="stroke:#fff;stroke-width:5.56px;"/><path id="SPLINE3" serif:id="SPLINE" d="M737.926,115.23c-1.759,12.282 -9.208,23.159 -15.539,33.3c-16.003,25.593 -62.415,71.031 -93.23,45.499c-8.796,-7.29 -14.606,-19.079 -15.538,-29.964c-3.577,-42.022 42.486,-66.148 73.258,-87.68c2.564,-1.805 6.767,-4.671 8.874,-8.877c0.699,-1.408 -0.869,-4.169 -3.334,-4.438c-18.748,-2.088 -56.124,-10.399 -66.587,6.65c-20.926,34.117 -28.959,74.739 -39.951,113.21c-4.618,16.146 0.198,34.614 -6.66,49.946c-12.446,27.811 -43.169,11.835 -49.947,-9.987c-3.631,-11.709 11.098,-26.163 4.438,-36.626c-5.353,-8.426 -38.022,41.852 -45.499,48.827c-9.254,8.633 -18.354,18.066 -29.964,21.088c-15.034,3.926 -23.518,2.312 -36.633,-6.653c-8.435,-5.781 -15.042,-14.666 -18.863,-24.424c-6.277,-16.038 -1.972,-36.971 -13.321,-49.935c-7.345,-8.402 -22.479,-7.676 -32.188,-4.447c-18.981,6.327 -24.189,38.201 -26.628,57.719c-3.175,25.328 0.34,45.177 -25.534,38.838c-29.889,-7.316 31.676,-82.913 12.211,-104.321c-4.472,-4.934 -19.247,-2.835 -22.198,4.438c-13.978,34.48 -12.847,72.233 -15.536,109.878c-0.674,9.452 0.008,22.235 -7.774,24.416c-24.575,6.874 -35.386,-0.057 -44.388,-23.312c-4.806,-12.417 4.984,-20.171 7.773,-33.288c5.084,-23.994 16.594,-48.987 8.876,-72.145c-5.46,-16.381 -76,1.54 -87.683,16.649c-34.479,44.565 -52.717,96.002 -71.026,150.942c-4.472,13.395 -27.37,6.149 -35.519,-4.446c-3.452,-4.483 -4.07,-12.471 -2.215,-18.864c10.435,-36.078 36.167,-67.78 54.377,-100.996c1.201,-2.178 1.085,-6.319 -1.104,-6.661c-14.265,-2.188 -32.417,4.579 -37.734,17.759c-18.855,46.675 -98.855,-24.117 -37.737,-47.721c37.17,-14.364 79.192,-14.213 116.532,-28.86c20.065,-7.863 34.018,-38.087 48.837,-54.386c18.477,-20.324 36.677,-41.069 57.71,-59.924c11.242,-10.078 24.334,-20.703 38.847,-28.86c3.865,-2.178 9.987,-3.328 14.425,-0c5.955,4.464 8.608,11.108 11.101,17.759c4.356,11.619 7.619,24.028 8.874,36.623c2.099,20.98 -5.8,31.57 -13.312,49.939c-2.556,6.25 -5.175,15.088 -1.113,18.872c14.194,13.245 24.718,-1.719 31.074,-14.425c8.321,-16.641 5.883,-39.17 18.864,-54.386c27.13,-31.771 97.274,-48.825 128.745,-14.425c17.429,19.044 16.361,47.077 -3.327,68.811c-13.682,15.088 -53.247,23.112 -46.611,46.613c6.097,21.625 2.645,50.321 25.526,46.611c22.789,-3.695 32.445,-32.644 52.159,-45.501c7.441,-4.849 21.6,5.729 27.749,-2.224c15.249,-19.73 27.183,-53.56 18.863,-77.685c-4.214,-12.237 -55.003,3.391 -34.4,-28.859c5.065,-7.936 33.315,-5.999 43.285,-6.662c6.731,-0.447 12.974,-4.994 19.975,-5.551c35.422,-2.787 71.465,-11.573 107.658,-5.548c13.933,2.321 7.531,16.246 25.523,25.534c18.129,9.349 18.363,32.357 15.539,52.16Zm-283.014,-27.748c0.573,-2.411 0.08,-6.922 -3.325,-7.763c-11.845,-2.958 -24.908,-3.426 -36.625,-0c-15.735,4.582 -36.194,8.678 -41.071,23.302c-10.176,30.535 75.901,5.97 81.021,-15.539Zm-188.67,2.224c0.994,-6.679 3.445,-15.78 -2.223,-21.088c-14.479,-13.581 -51.964,45.671 -62.15,57.713c-2.866,3.388 -3.263,11.555 0,12.2c16.318,3.263 39.306,6.662 51.052,-4.436c10.973,-10.364 10.918,-28.413 13.321,-44.389Zm447.271,25.524c1.444,-4.338 2.734,-11.116 -1.113,-13.322c-6.75,-3.846 -16.084,-2.618 -22.199,-0c-10.201,4.376 -18.511,11.288 -25.524,17.762c-7.521,6.937 -14.738,14.244 -17.761,23.308c-2.806,8.418 -4.697,18.229 0,24.415c20.873,27.505 61.1,-35.685 66.597,-52.163Z" style="stroke:#fff;stroke-width:5.56px;"/></svg>