<?xml version="1.0" encoding="UTF-8" standalone="no"?>
<!DOCTYPE svg PUBLIC "-//W3C//DTD SVG 1.1//EN" "http://www.w3.org/Graphics/SVG/1.1/DTD/svg11.dtd">
<svg width="100%" height="100%" viewBox="0 0 188 64" version="1.1" xmlns="http://www.w3.org/2000/svg" xmlns:xlink="http://www.w3.org/1999/xlink" xml:space="preserve" xmlns:serif="http://www.serif.com/" style="fill-rule:evenodd;clip-rule:evenodd;stroke-linecap:round;stroke-linejoin:round;stroke-miterlimit:2;">
    <g transform="matrix(1,0,0,1,-15.3928,-140.306)">
        <g transform="matrix(1,0,0,1,109.29,364.794)">
            <g id="Vrstva-1" serif:id="Vrstva 1">
                <g id="SPLINE" transform="matrix(1,0,0,1,-109.29,-364.794)">
                    <path d="M149.679,161.147C149.358,163.385 148.001,165.366 146.848,167.214C143.932,171.877 135.476,180.155 129.863,175.503C128.26,174.175 127.202,172.027 127.032,170.044C126.38,162.389 134.772,157.993 140.378,154.07C140.846,153.741 141.611,153.219 141.995,152.453C142.123,152.197 141.837,151.694 141.388,151.645C137.972,151.264 131.163,149.75 129.257,152.856C125.444,159.071 123.981,166.472 121.978,173.481C121.137,176.422 122.014,179.787 120.765,182.58C118.497,187.647 112.9,184.737 111.665,180.761C111.004,178.628 113.687,175.995 112.474,174.089C111.499,172.553 105.547,181.713 104.185,182.984C102.499,184.556 100.841,186.275 98.726,186.825C95.987,187.541 94.442,187.247 92.052,185.613C90.515,184.56 89.311,182.941 88.616,181.164C87.472,178.242 88.256,174.428 86.188,172.067C84.851,170.536 82.093,170.668 80.325,171.256C76.866,172.409 75.918,178.216 75.473,181.772C74.895,186.386 75.535,190.002 70.822,188.847C65.376,187.515 76.592,173.742 73.046,169.842C72.232,168.943 69.539,169.325 69.002,170.65C66.455,176.932 66.661,183.81 66.172,190.668C66.049,192.39 66.173,194.719 64.755,195.117C60.278,196.369 58.309,195.106 56.669,190.869C55.793,188.607 57.577,187.195 58.085,184.805C59.011,180.434 61.108,175.88 59.702,171.662C58.707,168.677 45.856,171.942 43.727,174.695C37.446,182.814 34.123,192.184 30.788,202.193C29.973,204.634 25.801,203.314 24.317,201.384C23.688,200.567 23.575,199.112 23.913,197.947C25.815,191.374 30.502,185.599 33.82,179.547C34.039,179.15 34.017,178.396 33.619,178.334C31.02,177.935 27.713,179.168 26.744,181.569C23.309,190.073 8.734,177.175 19.869,172.875C26.641,170.258 34.297,170.286 41.099,167.617C44.755,166.185 47.297,160.679 49.996,157.709C53.363,154.006 56.678,150.227 60.51,146.792C62.558,144.956 64.943,143.02 67.588,141.534C68.292,141.137 69.407,140.928 70.216,141.534C71.3,142.348 71.784,143.558 72.238,144.77C73.031,146.886 73.626,149.147 73.855,151.442C74.237,155.264 72.798,157.193 71.43,160.54C70.964,161.678 70.487,163.289 71.227,163.978C73.812,166.391 75.73,163.664 76.888,161.35C78.404,158.318 77.96,154.214 80.325,151.442C85.267,145.653 98.046,142.547 103.78,148.814C106.955,152.283 106.76,157.391 103.174,161.35C100.681,164.099 93.473,165.561 94.682,169.842C95.793,173.782 95.164,179.01 99.332,178.334C103.484,177.66 105.243,172.386 108.835,170.044C110.19,169.161 112.77,171.088 113.89,169.639C116.668,166.044 118.842,159.881 117.327,155.486C116.559,153.257 107.306,156.104 111.059,150.228C111.982,148.783 117.129,149.135 118.945,149.015C120.172,148.933 121.309,148.105 122.584,148.004C129.038,147.496 135.604,145.895 142.198,146.993C144.736,147.415 143.57,149.952 146.848,151.645C150.15,153.348 150.193,157.539 149.679,161.147ZM98.118,156.092C98.223,155.653 98.133,154.831 97.513,154.678C95.355,154.139 92.975,154.054 90.84,154.678C87.973,155.513 84.246,156.259 83.358,158.923C81.504,164.486 97.186,160.011 98.118,156.092ZM145.231,161.147C145.494,160.357 145.729,159.122 145.028,158.72C143.798,158.02 142.098,158.243 140.984,158.72C139.125,159.517 137.612,160.777 136.334,161.956C134.964,163.22 133.649,164.551 133.098,166.203C132.587,167.736 132.242,169.523 133.098,170.65C136.901,175.661 144.23,164.149 145.231,161.147ZM63.746,156.497C63.927,155.28 64.373,153.622 63.341,152.655C60.703,150.181 53.874,160.976 52.018,163.169C51.496,163.787 51.424,165.275 52.018,165.392C54.991,165.987 59.179,166.606 61.319,164.584C63.318,162.696 63.308,159.408 63.746,156.497Z" style="stroke:black;stroke-width:0.71px;"/>
                </g>
                <g id="SPLINE1" serif:id="SPLINE" transform="matrix(1,0,0,1,-109.29,-364.794)">
                    <path d="M176.368,152.453C175.422,157.813 173.049,163.045 169.292,167.011C165.746,170.753 162.412,175.013 157.765,176.919C154.025,178.453 151.364,175.702 150.285,172.267C149.012,168.217 152.225,164.342 154.126,160.54C154.856,159.083 163.359,149.63 161.811,146.792C160.511,144.41 156.13,146.295 153.318,145.983C152.419,145.884 151.295,145.498 151.295,144.77C151.295,139.277 164.516,140.542 168.482,141.534C171.835,142.372 175.144,143.847 175.964,147.398C176.372,149.172 176.651,150.847 176.368,152.453ZM169.292,154.678C169.378,154.112 168.73,152.935 168.078,153.261C166.032,154.284 160.586,161.462 163.225,162.562C165.839,163.651 168.932,157.017 169.292,154.678Z" style="stroke:black;stroke-width:0.71px;"/>
                </g>
                <g id="SPLINE2" serif:id="SPLINE" transform="matrix(1,0,0,1,-109.29,-364.794)">
                    <path d="M202.653,155.081C201.072,162.269 192.944,168.55 186.478,172.267C184.815,173.225 181.923,173.972 180.614,172.47C176.306,167.522 178.285,160.631 180.614,154.678C181.932,151.308 183.165,147.792 185.467,144.77C186.563,143.33 188.539,142.623 190.32,141.939C191.264,141.577 192.461,141.464 193.353,141.939C195.638,143.157 197.802,144.68 199.62,146.589C201.941,149.026 203.354,151.898 202.653,155.081ZM196.184,156.092C196.701,153.92 195.911,151.945 194.161,150.633C193.191,149.905 191.538,149.83 190.926,150.633C188.021,154.446 183.711,159.942 185.669,164.381C187.139,167.717 195.638,158.385 196.184,156.092Z" style="stroke:black;stroke-width:0.71px;"/>
                </g>
            </g>
        </g>
    </g>
</svg>
